# xmcd CD database file
# Copyright (C) 1993-2000  Ti Kan
#
# Track frame offsets:
#	150
#	14193
#	26501
#	43857
#	69836
#	86075
#	106139
#	127112
#	153072
#	167049
#	180362
#	199118
#
# Disc length: 3014 seconds
#
# Revision: 1
# Processed by: cddbd v1.4PL0 Copyright (c) Steve Scherf et al.
# Submitted via: xmcd 2.6 PL0
#
DISCID=970bc40c
DTITLE=Treves Blues Band - Blues again
DYEAR=1900
DGENRE=
TTITLE0=Blues again
TTITLE1=Contact
TTITLE2=Fool around
TTITLE3=Cold day in hell
TTITLE4=Can't be satisfied
TTITLE5=Endless love
TTITLE6=Hazel eyed honey
TTITLE7=Big slow
TTITLE8=Leave my troubles behind
TTITLE9=Fine things
TTITLE10=She's my baby
TTITLE11='Cajee bound
EXTD=
EXTT0=
EXTT1=
EXTT2=
EXTT3=
EXTT4=
EXTT5=
EXTT6=
EXTT7=
EXTT8=
EXTT9=
EXTT10=
EXTT11=
PLAYORDER=
